<?xml version="1.0"?>
<svg xmlns="http://www.w3.org/2000/svg" xmlns:xlink="http://www.w3.org/1999/xlink" xmlns:svgjs="http://svgjs.com/svgjs" version="1.1" width="512" height="512" x="0" y="0" viewBox="0 0 512.001 512.001" style="enable-background:new 0 0 512 512" xml:space="preserve" class=""><g>
<g xmlns="http://www.w3.org/2000/svg">
	<g>
		<path d="M507.657,295.984c-10.348-17.92-33.302-24.138-51.277-13.935c-3.268,1.61-45.001,22.122-79.376,36.586    c-3.838,1.616-5.641,6.037-4.026,9.877c1.615,3.838,6.037,5.64,9.877,4.026c36.05-15.17,79.971-36.85,80.41-37.066    c0.144-0.071,0.286-0.148,0.425-0.227c10.807-6.229,24.67-2.514,30.906,8.287c7.222,12.491-4.054,26.205-9.574,31.807    c-37.443,30.203-141.056,107.658-175.883,107.658c-38.602,0-146.922-22.948-173.413-28.689V291.119    c52.523-7.722,80.351,1.963,138.665,22.284c17.739,6.181,37.838,13.185,62.265,20.994c3.641,1.588,13.74,7.272,9.891,20.124    c-2.34,7.814-9.887,15.284-20.935,13.206c-14.847-2.786-102.224-14.637-105.937-15.141c-4.129-0.557-7.927,2.333-8.486,6.461    c-0.559,4.127,2.333,7.927,6.461,8.486c0.905,0.123,90.706,12.302,105.181,15.019c2.245,0.421,4.427,0.62,6.535,0.62    c16.012,0,27.787-11.492,31.63-24.324c4.044-13.503-0.159-30.593-18.632-38.415c-0.026-0.011-0.052-0.023-0.079-0.035    c-0.023-0.01-0.045-0.022-0.069-0.031c-0.102-0.042-0.204-0.072-0.307-0.111c-0.106-0.038-0.205-0.083-0.313-0.118    c-24.4-7.794-44.503-14.8-62.241-20.981c-58.155-20.265-88.802-30.923-143.628-23.272v-6.306c0-4.165-3.377-7.542-7.542-7.542    h-22.62v-7.538c0-1.981-0.804-3.932-2.212-5.33c-1.398-1.408-3.349-2.212-5.33-2.212H7.542c-1.981,0-3.922,0.804-5.33,2.212    C0.804,250.57,0,252.521,0,254.502V420.35c0,4.153,3.389,7.542,7.542,7.542c4.163,0,7.542-3.389,7.542-7.542V262.044h75.398    v180.952H75.406v-7.537c0-4.165-3.377-7.542-7.542-7.542s-7.542,3.377-7.542,7.542v7.537H8.155C3.69,442.644,0,446.153,0,450.517    v0.02c0,1.991,0.804,3.932,2.212,5.329c1.398,1.408,3.349,2.212,5.33,2.212h60.302c0.007,0,0.013,0.001,0.02,0.001    c0.006,0,0.013-0.001,0.02-0.001h30.139c1.981,0,3.932-0.804,5.33-2.212c1.408-1.398,2.212-3.339,2.212-5.329v-7.92h22.619    c4.165,0,7.542-3.377,7.542-7.542v-5.329c31.555,6.818,134.25,28.334,173.413,28.334c20.611,0,57.159-18.363,111.729-56.138    c39.355-27.242,73.612-54.855,73.952-55.13c0.209-0.169,0.408-0.348,0.598-0.538C511.803,329.869,516.377,311.068,507.657,295.984    z M120.642,420.253c0,0.007,0,0.013,0,0.02v7.261h-15.078v-0.001V277.122h15.078V420.253z" fill="#f1f1f1" data-original="#000000" style=""/>
	</g>
</g>
<g xmlns="http://www.w3.org/2000/svg">
	<g>
		<path d="M417.152,97.23c-3.498-8.618-8.628-16.34-15.255-22.957c-9.16-9.171-20.643-15.566-33.224-18.503    c-5.169-1.197-10.488-1.81-15.817-1.81h-0.03c-7.823,0-15.526,1.307-22.897,3.881c-7.572,2.645-14.561,6.556-20.775,11.614    c-6.224-5.078-13.214-8.99-20.785-11.644c-7.382-2.584-15.084-3.892-22.907-3.892h-0.07c-8.99,0-17.768,1.72-26.094,5.098    c-8.608,3.499-16.33,8.628-22.937,15.255c-6.617,6.607-11.745,14.319-15.234,22.937c-3.379,8.326-5.088,17.115-5.078,26.115    c-0.01,8.929,1.679,17.648,4.998,25.914c3.446,8.557,8.494,16.24,15.02,22.836c0.091,0.111,0.191,0.211,0.302,0.312l87.434,87.444    c1.408,1.408,3.349,2.212,5.34,2.212c1.982,0,3.922-0.804,5.331-2.212l31.102-31.102c1.428-1.428,2.212-3.318,2.212-5.33    c0-2.021-0.784-3.912-2.212-5.34c-1.428-1.418-3.318-2.202-5.33-2.202c-2.021,0-3.913,0.784-5.34,2.202l-25.763,25.773    l-81.832-81.833c-0.101-0.101-0.191-0.201-0.282-0.292c-10.247-10.247-15.898-23.872-15.908-38.383    c0.01-14.52,5.661-28.146,15.908-38.393c10.257-10.267,23.892-15.918,38.393-15.928c14.38,0.01,27.915,5.571,38.121,15.667    c0.754,0.835,1.669,1.478,2.715,1.911c0.914,0.382,1.89,0.573,2.875,0.573c2.021,0,3.913-0.784,5.341-2.212    c10.246-10.247,23.871-15.898,38.383-15.898c4.173,0,8.336,0.473,12.388,1.418c9.834,2.303,18.825,7.3,25.995,14.48    c10.257,10.247,15.908,23.882,15.918,38.393c-0.01,14.51-5.661,28.146-15.918,38.393l-35.005,35.004    c-1.417,1.418-2.201,3.318-2.201,5.33c0,2.021,0.784,3.912,2.201,5.33c1.428,1.428,3.319,2.212,5.341,2.212    c2.011,0,3.902-0.784,5.33-2.212l35.004-35.004c6.617-6.607,11.746-14.329,15.244-22.947c3.379-8.326,5.089-17.105,5.089-26.105    C422.241,114.335,420.532,105.556,417.152,97.23z" fill="#f1f1f1" data-original="#000000" style=""/>
	</g>
</g>
<g xmlns="http://www.w3.org/2000/svg">
</g>
<g xmlns="http://www.w3.org/2000/svg">
</g>
<g xmlns="http://www.w3.org/2000/svg">
</g>
<g xmlns="http://www.w3.org/2000/svg">
</g>
<g xmlns="http://www.w3.org/2000/svg">
</g>
<g xmlns="http://www.w3.org/2000/svg">
</g>
<g xmlns="http://www.w3.org/2000/svg">
</g>
<g xmlns="http://www.w3.org/2000/svg">
</g>
<g xmlns="http://www.w3.org/2000/svg">
</g>
<g xmlns="http://www.w3.org/2000/svg">
</g>
<g xmlns="http://www.w3.org/2000/svg">
</g>
<g xmlns="http://www.w3.org/2000/svg">
</g>
<g xmlns="http://www.w3.org/2000/svg">
</g>
<g xmlns="http://www.w3.org/2000/svg">
</g>
<g xmlns="http://www.w3.org/2000/svg">
</g>
</g></svg>
