<?xml version="1.0"?>
<svg xmlns="http://www.w3.org/2000/svg" xmlns:xlink="http://www.w3.org/1999/xlink" xmlns:svgjs="http://svgjs.com/svgjs" version="1.1" width="512" height="512" x="0" y="0" viewBox="0 0 512 512" style="enable-background:new 0 0 512 512" xml:space="preserve" class=""><g><path xmlns="http://www.w3.org/2000/svg" d="M39.17,487H385.95c3.314,0,6.05-2.266,6.05-5.58V416h58.2a6.008,6.008,0,0,0,5.8-6.2V386h16.83a5.964,5.964,0,0,0,6.17-5.78V341.83c0-13.338-11.021-23.83-24.36-23.83H418.13l16.264-100.913c.02-.126.036-.342.048-.468A38.9,38.9,0,0,0,395.45,174H392V30.58c0-3.314-2.736-5.58-6.05-5.58H111.98a5.815,5.815,0,0,0-4.148,1.455L34.937,96.03A5.852,5.852,0,0,0,33,100.26V481.42C33,484.734,35.856,487,39.17,487ZM467,374H362.335a6,6,0,0,0,0,12H444v18H320V386h14.013a6,6,0,0,0,0-12H297V363H467Zm-12.36-44c6.722,0,12.36,5.108,12.36,11.83V351H297v-9.17a10.983,10.983,0,0,1,.729-3.774A12.136,12.136,0,0,1,309.31,330ZM395.45,186a26.661,26.661,0,0,1,20.119,8.7,26.1,26.1,0,0,1,6.946,20.362L406,317H357.949L341.436,215.06a26.114,26.114,0,0,1,6.955-20.369A26.668,26.668,0,0,1,368.51,186ZM106,44.627V94H53.981ZM45,106h66.98c3.313,0,6.02-2.3,6.02-5.61V37H380V174H368.51a38.846,38.846,0,0,0-39,42.633c.012.128.028.381.049.507L331.308,228H96.66a6,6,0,1,0,0,12H333.243l3.547,22H96.66a6,6,0,1,0,0,12H338.725l3.547,22H96.66a6,6,0,1,0,0,12H344.207l1.612,10H309.31A24.238,24.238,0,0,0,288.3,330H96.66a6,6,0,1,0,0,12H285v22H96.66a6,6,0,1,0,0,12H285v4.22a5.921,5.921,0,0,0,6.12,5.78H308v23.8a5.968,5.968,0,0,0,5.75,6.2H380v59H45Z" fill="#f1f1f1" data-original="#000000" style="" class=""/><path xmlns="http://www.w3.org/2000/svg" d="M239.2,398H96.66a6,6,0,1,0,0,12H239.2a6,6,0,1,0,0-12Z" fill="#f1f1f1" data-original="#000000" style="" class=""/><path xmlns="http://www.w3.org/2000/svg" d="M146.62,217.23a53.236,53.236,0,1,0-53-53.23A53.18,53.18,0,0,0,146.62,217.23Zm0-94.47a41.236,41.236,0,1,1-41,41.24A41.172,41.172,0,0,1,146.62,122.76Z" fill="#f1f1f1" data-original="#000000" style="" class=""/><path xmlns="http://www.w3.org/2000/svg" d="M146.62,196.91A32.915,32.915,0,1,0,113.61,164,33,33,0,0,0,146.62,196.91Zm0-53.83A20.915,20.915,0,1,1,125.61,164,20.994,20.994,0,0,1,146.62,143.08Z" fill="#f1f1f1" data-original="#000000" style="" class=""/><path xmlns="http://www.w3.org/2000/svg" d="M366.836,272.188a6,6,0,0,0-4.959,6.885l1.02,6.27a6,6,0,0,0,11.845-1.926l-1.02-6.271A6,6,0,0,0,366.836,272.188Z" fill="#f1f1f1" data-original="#000000" style="" class=""/><path xmlns="http://www.w3.org/2000/svg" d="M355.79,201.205a17.063,17.063,0,0,0-4.442,12.419,5.751,5.751,0,0,0,.069.642l7.2,44.6a6,6,0,1,0,11.846-1.912l-7.139-44.223a5.195,5.195,0,0,1,5.186-5.161,6,6,0,0,0,0-12A17,17,0,0,0,355.79,201.205Z" fill="#f1f1f1" data-original="#000000" style="" class=""/></g></svg>
