<?xml version="1.0" standalone="no"?>
<!DOCTYPE svg PUBLIC "-//W3C//DTD SVG 20010904//EN"
 "http://www.w3.org/TR/2001/REC-SVG-20010904/DTD/svg10.dtd">
<svg version="1.0" xmlns="http://www.w3.org/2000/svg"
 width="76.000000pt" height="76.000000pt" viewBox="0 0 76.000000 76.000000"
 preserveAspectRatio="xMidYMid meet">
<metadata>
Created by potrace 1.11, written by Peter Selinger 2001-2013
</metadata>
<g transform="translate(0.000000,76.000000) scale(0.100000,-0.100000)"
fill="#000000" stroke="none">
<path d="M371 735 c-16 -15 -36 -42 -43 -61 -11 -32 -14 -34 -43 -27 -131 32
-206 -51 -170 -189 5 -21 4 -28 -7 -28 -8 0 -29 -14 -47 -30 -26 -26 -31 -37
-31 -78 0 -81 76 -174 152 -186 23 -3 25 -7 27 -54 0 -13 15 -37 32 -54 30
-30 31 -31 112 -25 160 10 336 108 368 205 9 27 7 39 -11 77 -12 25 -27 45
-33 45 -9 0 -9 2 -1 8 6 4 21 25 33 47 31 58 29 139 -4 188 -28 40 -55 51
-104 44 -24 -4 -31 -2 -31 10 0 25 -47 99 -74 117 -38 24 -89 20 -125 -9z
m123 -30 c28 -25 46 -63 50 -105 4 -29 21 -37 44 -18 22 18 41 16 74 -6 45
-30 54 -116 18 -186 -11 -21 -26 -40 -35 -44 -14 -5 -11 -13 18 -47 65 -75 25
-140 -131 -218 -47 -24 -139 -49 -200 -56 -58 -6 -92 27 -92 90 0 25 -3 46 -7
46 -5 1 -20 2 -34 3 -72 4 -155 105 -143 173 6 32 39 62 74 70 34 6 35 9 16
54 -46 112 51 208 150 148 17 -11 34 -19 37 -19 3 0 9 17 13 38 3 20 17 52 31
70 31 41 77 44 117 7z"/>
<path d="M405 687 c-53 -45 -40 -175 20 -207 29 -15 49 -9 70 23 36 55 24 150
-23 187 -31 25 -35 25 -67 -3z"/>
<path d="M182 577 c-40 -43 -18 -129 43 -167 67 -41 130 -13 128 58 -2 97
-115 168 -171 109z"/>
<path d="M585 546 c-45 -45 -46 -153 -1 -174 20 -9 29 -7 50 9 35 28 48 76 37
142 -2 12 -40 47 -51 47 -6 0 -22 -11 -35 -24z"/>
<path d="M385 408 c-19 -17 -31 -45 -45 -101 -11 -43 -30 -97 -44 -120 -36
-63 -40 -93 -16 -117 24 -24 44 -25 129 -4 121 30 261 120 261 169 0 26 -45
65 -90 78 -36 10 -49 20 -62 47 -35 70 -86 88 -133 48z"/>
<path d="M102 368 c-20 -26 -23 -58 -7 -91 40 -84 161 -116 186 -50 24 64 -50
153 -127 153 -23 0 -46 -6 -52 -12z"/>
</g>
</svg>
