<?xml version="1.0" standalone="no"?>
<!DOCTYPE svg PUBLIC "-//W3C//DTD SVG 20010904//EN"
 "http://www.w3.org/TR/2001/REC-SVG-20010904/DTD/svg10.dtd">
<svg version="1.0" xmlns="http://www.w3.org/2000/svg"
 width="590.000000pt" height="590.000000pt" viewBox="0 0 590.000000 590.000000"
 preserveAspectRatio="xMidYMid meet">
<metadata>
Created by potrace 1.11, written by Peter Selinger 2001-2013
</metadata>
<g transform="translate(0.000000,590.000000) scale(0.100000,-0.100000)"
fill="#000000" stroke="none">
<path d="M2921 5182 c-6 -9 -11 -14 -11 -10 0 6 -15 -7 -106 -87 -12 -11 -32
-27 -45 -35 -12 -8 -33 -26 -46 -39 -13 -13 -23 -21 -23 -18 0 4 -14 -7 -30
-23 -17 -17 -35 -30 -41 -30 -6 0 -7 -4 -4 -10 3 -5 0 -10 -9 -10 -8 0 -26
-14 -40 -31 -14 -17 -26 -26 -26 -21 0 6 -18 -8 -40 -30 -22 -23 -40 -39 -40
-35 0 3 -18 -11 -40 -31 -53 -50 -70 -64 -70 -58 0 2 -18 -12 -39 -32 -66 -61
-90 -82 -95 -82 -3 0 -16 -10 -30 -22 -13 -13 -39 -34 -56 -48 -59 -45 -82
-65 -98 -82 -9 -10 -22 -18 -30 -18 -7 0 -10 -4 -7 -10 3 -5 0 -10 -7 -10 -8
0 -21 -8 -29 -17 -9 -10 -33 -31 -54 -48 -21 -16 -44 -36 -51 -42 -7 -7 -18
-13 -24 -13 -6 0 -9 -4 -5 -9 3 -5 -4 -12 -15 -16 -11 -3 -20 -11 -20 -16 0
-6 -4 -8 -9 -4 -5 3 -12 -4 -16 -15 -4 -11 -10 -18 -14 -16 -4 3 -15 -3 -24
-12 -8 -9 -22 -22 -29 -27 -7 -6 -40 -33 -73 -60 -33 -28 -66 -54 -73 -60 -7
-5 -23 -19 -35 -30 -12 -11 -25 -19 -29 -17 -5 1 -8 -5 -8 -15 0 -9 -3 -13 -6
-10 -4 4 -15 -3 -25 -15 -11 -11 -19 -18 -19 -15 0 3 -16 -10 -36 -29 -20 -19
-41 -34 -45 -34 -5 0 -9 -7 -9 -16 0 -8 -4 -13 -9 -10 -5 3 -25 -9 -44 -28
-20 -19 -38 -31 -41 -28 -4 3 -6 -2 -6 -12 0 -9 -4 -14 -10 -11 -5 3 -10 1
-10 -6 0 -7 -2 -10 -5 -7 -3 3 -21 -9 -40 -26 -19 -17 -50 -44 -70 -61 -20
-16 -46 -40 -58 -52 -11 -13 -24 -23 -29 -23 -9 0 -138 -107 -150 -124 -4 -6
-8 -8 -8 -4 0 4 -11 -4 -25 -17 -13 -14 -29 -25 -35 -25 -6 0 -8 -4 -5 -10 3
-5 0 -10 -8 -10 -8 0 -18 -7 -21 -16 -4 -9 -9 -14 -12 -11 -3 2 -15 -5 -28
-17 -12 -11 -44 -39 -71 -61 -26 -22 -59 -49 -73 -60 -13 -11 -37 -32 -53 -47
-16 -15 -29 -25 -29 -21 0 3 -11 -6 -24 -20 -13 -14 -27 -23 -30 -20 -3 4 -6
-1 -6 -10 0 -10 -4 -16 -8 -15 -5 2 -28 -14 -52 -34 -23 -21 -47 -38 -52 -38
-5 0 -6 -4 -3 -10 3 -5 0 -10 -7 -10 -7 0 -32 -17 -54 -38 -23 -20 -57 -48
-75 -62 -18 -14 -48 -39 -66 -56 -18 -17 -35 -29 -37 -27 -2 3 -10 -5 -16 -17
-7 -13 -10 -55 -8 -106 2 -46 -1 -84 -6 -84 -5 0 -4 -6 2 -13 6 -7 7 -18 3
-25 -4 -7 -5 -33 -1 -57 4 -26 3 -48 -4 -55 -6 -6 -6 -10 0 -10 5 0 9 -18 9
-40 0 -22 -4 -40 -8 -40 -4 0 -3 -9 3 -19 7 -14 6 -21 -3 -24 -6 -3 -7 -6 -2
-6 10 -1 38 21 103 79 18 17 40 30 48 30 8 0 12 5 9 10 -3 6 2 13 12 17 10 4
28 16 39 28 37 35 64 55 75 55 5 0 8 4 4 9 -3 5 4 12 15 16 11 3 20 11 20 16
0 5 3 8 7 7 5 -1 22 11 39 27 17 17 47 44 68 60 40 31 46 36 117 97 24 20 46
36 49 35 3 0 27 20 53 46 26 26 52 45 57 42 5 -3 11 4 15 15 3 11 10 20 15 20
5 0 23 13 40 30 16 16 30 27 30 24 0 -3 14 8 31 25 17 17 34 31 37 31 4 0 26
19 50 41 23 23 42 39 42 36 0 -3 12 5 27 19 14 13 40 35 56 47 17 12 45 36 64
52 55 50 62 55 68 55 4 -1 16 11 27 25 11 14 22 24 25 21 3 -2 20 11 39 31 19
19 34 32 34 29 0 -3 13 8 29 23 16 16 46 42 67 57 21 16 54 44 73 61 20 18 42
33 49 33 7 0 10 5 7 10 -3 6 -2 10 3 10 5 0 22 11 37 24 16 14 33 22 38 19 6
-3 7 -1 4 4 -4 6 10 23 31 39 20 15 47 38 60 51 12 13 22 21 22 17 0 -4 7 1
15 12 8 10 15 15 15 10 0 -5 9 3 21 18 11 14 25 24 30 21 5 -4 9 1 9 9 0 9 4
16 10 16 5 0 20 11 33 24 14 14 28 22 31 19 3 -4 6 -1 6 6 0 7 5 9 12 5 6 -4
8 -3 5 4 -4 5 13 23 38 40 24 16 42 32 38 36 -3 3 -2 6 4 6 6 0 28 16 49 35
22 19 45 35 52 35 7 0 11 3 9 8 -3 4 1 13 9 20 8 7 14 9 14 5 0 -4 4 -3 8 3 6
8 63 57 148 126 9 7 27 24 40 37 13 13 24 21 24 18 0 -3 10 4 23 16 13 12 40
36 61 52 60 48 97 78 122 103 13 12 26 22 29 22 3 0 19 12 34 28 46 44 97 87
107 90 5 2 26 19 47 38 20 19 37 32 37 29 0 -4 14 7 31 24 17 17 34 31 39 31
4 0 25 -16 46 -35 22 -19 43 -35 47 -35 5 0 5 -5 2 -10 -4 -6 -2 -9 3 -8 9 3
53 -29 110 -79 14 -13 29 -23 33 -23 5 0 9 -7 9 -17 0 -9 3 -14 6 -10 4 3 12
1 19 -6 7 -7 32 -28 55 -46 23 -19 48 -41 56 -48 7 -7 16 -13 21 -13 4 0 14
-9 21 -20 7 -11 16 -20 22 -20 5 0 27 -18 50 -40 22 -21 40 -36 40 -32 0 4 11
-6 24 -21 14 -16 27 -28 30 -28 6 1 41 -27 92 -74 17 -16 37 -31 43 -32 16 -4
50 -40 43 -47 -3 -3 1 -6 9 -6 8 0 28 -14 46 -30 18 -17 36 -30 40 -30 5 0 14
-9 21 -20 7 -11 19 -20 28 -20 8 0 12 -4 9 -10 -3 -5 -1 -10 6 -10 6 0 20 -10
30 -22 11 -11 19 -18 19 -15 0 3 10 -4 23 -16 13 -12 34 -31 48 -42 98 -80
134 -111 137 -118 2 -4 8 -5 13 -1 5 3 9 -2 9 -11 0 -9 4 -14 9 -11 5 3 17 -6
27 -19 10 -14 23 -25 29 -25 6 0 17 -9 25 -20 8 -11 18 -20 23 -20 5 0 21 -12
37 -27 16 -16 43 -39 61 -53 18 -14 43 -35 55 -47 13 -13 27 -23 31 -23 5 0
16 -8 24 -17 23 -27 79 -74 79 -68 0 4 11 -5 24 -19 13 -15 26 -26 30 -26 14
0 35 -28 28 -35 -4 -5 -1 -5 6 -1 7 4 15 1 18 -8 3 -9 11 -16 18 -16 6 0 18
-9 26 -20 8 -11 18 -20 23 -20 5 0 21 -12 36 -27 47 -46 81 -73 92 -73 5 0 7
-4 4 -10 -3 -5 0 -10 7 -10 8 0 34 -18 58 -40 24 -22 48 -40 53 -40 4 0 5 -6
1 -12 -4 -7 -4 -10 1 -6 7 7 115 -76 123 -94 2 -5 10 -8 18 -8 9 0 12 -4 9
-10 -3 -5 1 -10 9 -10 9 0 16 -4 16 -10 0 -5 8 -10 17 -10 9 0 14 -3 10 -6 -6
-6 45 -54 56 -54 4 0 17 -10 30 -22 55 -53 107 -95 112 -90 2 3 7 -3 11 -12 3
-9 13 -16 21 -16 8 0 11 -4 8 -10 -3 -5 1 -10 9 -10 9 0 21 -9 28 -20 7 -11
16 -20 21 -20 4 0 20 -11 35 -25 15 -14 34 -32 43 -40 9 -8 18 -15 22 -15 3 0
17 -10 30 -22 24 -23 79 -70 131 -110 15 -13 40 -33 54 -45 14 -12 30 -19 36
-16 6 4 6 8 -2 11 -7 2 -10 8 -7 12 9 14 10 174 1 188 -4 6 -4 12 1 12 7 0 9
199 3 223 -2 4 -3 11 -4 16 0 5 -14 20 -31 33 -31 23 -58 46 -101 85 -13 12
-24 20 -24 18 0 -4 -34 24 -81 68 -10 9 -19 15 -19 12 0 -3 -13 9 -29 25 -15
17 -31 30 -35 30 -4 0 -19 12 -35 28 -15 15 -43 38 -62 52 -18 14 -43 34 -55
45 -12 12 -37 32 -54 45 -33 26 -54 43 -102 86 -15 13 -30 24 -33 24 -3 0 -18
14 -33 30 -16 17 -33 30 -37 30 -4 0 -21 13 -36 30 -16 16 -29 27 -29 23 0 -5
-11 3 -25 17 -36 37 -53 50 -65 50 -6 0 -9 4 -6 8 3 5 -6 15 -19 22 -14 7 -25
17 -25 22 0 4 -4 8 -10 8 -9 0 -40 25 -95 78 -13 12 -27 22 -30 22 -3 0 -18
11 -33 25 -15 14 -34 32 -43 40 -9 8 -18 15 -22 15 -3 0 -17 10 -30 23 -12 12
-42 38 -66 57 -43 35 -66 54 -108 91 -13 10 -23 16 -23 14 0 -3 -16 9 -35 27
-63 59 -96 88 -100 88 -6 0 -57 43 -97 82 -15 14 -28 24 -28 21 0 -3 -9 4 -20
17 -11 13 -20 20 -20 16 0 -4 -10 3 -23 16 -13 13 -41 37 -62 53 -21 17 -46
38 -56 47 -10 9 -27 22 -39 28 -11 6 -18 15 -15 21 4 5 -3 9 -14 9 -12 0 -21
7 -21 15 0 8 -5 15 -11 15 -6 0 -16 6 -24 13 -7 6 -30 26 -51 44 -22 17 -49
39 -61 50 -11 10 -41 34 -64 53 -24 19 -54 45 -68 58 -13 12 -27 22 -30 22 -6
0 -37 27 -118 100 -12 11 -25 20 -28 20 -3 0 -17 12 -30 26 -14 15 -25 24 -25
20 0 -4 -17 9 -37 29 -21 20 -45 42 -54 50 -9 8 -21 15 -28 15 -7 0 -9 5 -6
10 3 6 1 10 -4 10 -11 0 -38 20 -77 58 -13 12 -26 22 -29 22 -3 0 -16 10 -29
23 -12 12 -38 33 -56 47 -18 14 -44 35 -56 48 -13 12 -28 22 -34 22 -5 0 -10
4 -10 9 0 17 -30 20 -39 3z"/>
<path d="M2898 4182 c-42 -42 -105 -97 -110 -97 -6 0 -96 -76 -140 -117 -16
-16 -32 -28 -36 -28 -4 0 -30 -22 -59 -49 -28 -27 -54 -47 -56 -44 -3 2 -14
-8 -26 -23 -11 -15 -21 -23 -21 -18 0 5 -13 -6 -29 -23 -16 -18 -31 -30 -34
-27 -2 3 -14 -7 -26 -22 -11 -15 -21 -24 -21 -20 0 3 -8 -2 -18 -11 -10 -10
-35 -31 -56 -48 -21 -16 -47 -39 -57 -49 -11 -11 -19 -17 -19 -13 0 4 -13 -7
-30 -25 -16 -17 -30 -27 -30 -22 -1 5 -7 -2 -15 -16 -8 -14 -14 -21 -15 -16 0
5 -9 -1 -20 -14 -11 -13 -20 -20 -20 -17 0 4 -14 -7 -30 -23 -17 -17 -35 -30
-40 -30 -6 0 -10 -7 -10 -15 0 -8 -4 -14 -9 -12 -8 2 -83 -56 -123 -95 -10
-10 -18 -16 -18 -13 0 3 -8 -3 -18 -12 -44 -42 -83 -73 -92 -73 -5 0 -10 -4
-10 -9 0 -5 -15 -18 -32 -30 -18 -11 -29 -21 -25 -21 12 0 -81 -70 -94 -70 -5
0 -7 -4 -4 -10 3 -5 3 -10 -2 -10 -9 0 -51 -33 -95 -75 -15 -14 -30 -25 -34
-25 -4 0 -15 -10 -25 -22 -11 -11 -19 -19 -19 -16 0 4 -24 -16 -52 -43 -29
-27 -59 -49 -65 -49 -7 0 -13 -7 -13 -15 0 -8 -7 -15 -15 -15 -8 0 -15 -4 -15
-10 0 -5 -4 -10 -10 -10 -5 0 -23 -13 -40 -30 -17 -16 -35 -30 -41 -30 -6 0
-8 -4 -4 -9 3 -5 -3 -12 -13 -15 -11 -4 -43 -29 -73 -56 -29 -27 -55 -47 -57
-45 -7 6 -30 -19 -25 -27 2 -5 -3 -8 -12 -8 -8 0 -18 -7 -21 -15 -4 -8 -10
-15 -16 -15 -5 0 -19 -11 -32 -25 -13 -14 -26 -25 -30 -25 -4 0 -23 -15 -43
-32 -19 -18 -41 -31 -47 -30 -6 2 -8 0 -4 -4 5 -4 0 -13 -11 -20 -17 -12 -18
-37 -17 -453 1 -241 5 -443 9 -447 4 -4 18 2 30 14 32 33 68 61 100 80 15 9
27 20 27 24 0 4 4 8 10 8 5 0 19 8 29 17 32 29 50 43 58 45 10 3 40 27 64 52
11 11 19 16 19 10 0 -5 5 -1 11 9 5 9 17 17 24 17 8 0 15 7 15 16 0 8 4 13 9
9 5 -3 20 5 34 17 13 13 32 30 43 38 10 8 39 31 64 50 25 19 47 37 50 40 3 4
13 9 23 13 11 4 15 12 11 18 -4 7 -3 9 4 5 6 -3 15 2 21 11 6 10 11 14 11 10
0 -8 18 5 50 37 11 11 20 16 20 11 0 -4 11 5 25 21 14 16 25 25 25 21 0 -4 11
3 24 17 13 15 26 26 30 26 3 0 19 13 35 28 16 15 54 46 85 67 30 22 55 46 56
53 0 7 4 11 9 7 5 -3 17 5 25 17 9 12 16 18 16 13 0 -5 8 0 19 11 10 10 40 37
66 59 27 22 57 50 68 63 12 12 27 22 34 22 8 0 12 4 9 9 -4 5 -2 11 3 13 13 4
146 127 269 247 57 56 108 101 113 101 5 0 8 3 6 8 -1 4 2 7 6 7 5 0 15 11 22
25 8 14 14 22 15 18 0 -5 8 0 18 10 11 9 17 20 15 24 -2 4 6 9 16 13 11 3 23
15 26 26 4 11 9 18 11 16 3 -2 41 31 84 73 44 43 80 75 80 72 1 -4 7 4 15 18
8 14 14 22 15 19 1 -17 144 135 146 154 1 12 3 23 4 25 2 1 3 5 4 10 1 4 10
24 19 46 9 21 17 47 17 57 0 11 4 19 9 19 5 0 12 14 16 30 4 17 11 30 17 30 6
0 9 3 5 6 -7 8 38 76 82 123 17 18 31 37 31 43 0 5 4 7 9 3 6 -3 14 3 20 12
10 17 10 17 11 1 0 -10 5 -18 11 -18 5 0 8 -4 4 -9 -3 -5 0 -15 7 -23 12 -12
17 -24 21 -53 1 -5 5 -12 9 -15 4 -3 8 -17 10 -30 2 -14 7 -31 11 -37 5 -7 6
-13 3 -13 -2 0 7 -39 20 -87 14 -49 26 -96 27 -105 1 -10 5 -18 10 -18 5 0 7
-7 3 -15 -9 -25 8 -17 34 16 14 18 32 40 42 50 9 9 14 20 11 23 -3 3 2 8 11
12 9 3 16 10 16 16 0 5 7 16 15 24 12 12 15 12 16 2 0 -7 1 -32 3 -55 1 -23
-1 -40 -5 -38 -4 3 -3 -11 1 -30 5 -21 4 -38 -2 -41 -6 -4 -5 -10 3 -15 12 -8
11 -11 -1 -19 -12 -8 -12 -10 -1 -10 10 0 11 -3 2 -14 -9 -11 -9 -15 1 -20 11
-5 11 -7 0 -12 -10 -5 -9 -10 5 -21 10 -8 11 -11 3 -7 -8 4 -5 -3 7 -15 12
-11 26 -21 31 -21 5 0 15 -11 22 -25 7 -13 17 -22 22 -19 4 3 8 1 8 -5 0 -5 9
-13 20 -16 11 -4 18 -10 15 -14 -2 -4 11 -20 30 -36 19 -15 32 -32 28 -38 -3
-5 -2 -7 3 -4 10 5 94 -75 94 -89 0 -4 10 -16 23 -28 12 -12 23 -29 25 -37 2
-7 8 -16 13 -17 5 -2 7 -8 4 -12 -3 -5 1 -24 9 -42 8 -18 22 -52 32 -75 9 -24
21 -43 26 -43 4 0 8 -4 8 -10 0 -13 37 -50 50 -50 5 0 15 -9 22 -20 7 -11 18
-20 24 -20 6 0 23 -10 37 -22 115 -102 146 -132 141 -140 -3 -4 0 -8 5 -8 6 0
11 -7 11 -15 0 -8 4 -15 9 -15 14 0 4 -82 -11 -92 -7 -4 -9 -8 -5 -8 5 0 -1
-13 -12 -29 -12 -16 -21 -32 -21 -35 0 -6 -37 -51 -57 -70 -30 -28 -41 -34
-47 -29 -3 4 -6 2 -6 -4 0 -6 -8 -13 -17 -17 -105 -37 -121 -40 -238 -39 -165
1 -257 14 -287 43 -12 11 -26 20 -30 20 -10 0 -130 120 -120 120 4 0 2 4 -4 8
-5 4 -26 30 -45 57 -18 28 -37 52 -41 53 -5 2 -8 12 -8 23 0 10 -5 19 -10 19
-6 0 -15 11 -20 25 -5 14 -14 25 -20 25 -6 0 -9 4 -5 9 3 5 -2 16 -10 24 -8 9
-15 20 -15 26 0 6 -4 11 -10 11 -5 0 -10 7 -10 15 0 8 -4 15 -10 15 -5 0 -10
5 -10 10 0 6 -12 24 -27 42 -70 79 -100 95 -110 58 -3 -11 -9 -20 -13 -20 -5
0 -11 -13 -15 -30 -4 -17 -10 -30 -15 -30 -4 0 -11 -12 -14 -26 -7 -28 -10
-32 -57 -84 -17 -19 -28 -28 -23 -20 6 12 5 13 -8 2 -43 -35 -198 2 -269 64
-9 8 -18 12 -21 9 -3 -3 -13 4 -23 15 -10 11 -22 20 -26 20 -15 0 -78 47 -72
54 4 3 -1 6 -10 6 -21 0 -21 2 3 -48 22 -45 37 -82 39 -95 0 -4 7 -20 15 -36
9 -16 12 -31 9 -35 -4 -3 0 -6 7 -6 7 0 11 -3 7 -6 -3 -4 0 -19 8 -34 8 -15
12 -29 10 -32 -3 -2 -1 -19 4 -36 6 -21 6 -32 0 -32 -6 0 -8 -4 -4 -10 3 -5
-4 -29 -15 -53 -11 -24 -22 -52 -24 -63 -2 -10 -9 -32 -16 -48 -17 -46 -11
-127 17 -206 3 -8 4 -43 3 -78 -2 -93 19 -147 65 -167 39 -16 62 -18 210 -19
l150 -1 2 -75 c2 -84 10 -168 19 -182 3 -5 8 -24 10 -41 3 -18 10 -44 15 -59
6 -15 8 -31 5 -36 -3 -5 1 -15 9 -22 8 -7 13 -16 10 -20 -3 -5 -1 -11 5 -15 6
-4 8 -11 5 -16 -4 -5 -2 -9 2 -9 5 0 10 -10 10 -22 1 -13 7 -24 13 -26 5 -2
10 -11 10 -20 0 -10 9 -28 20 -42 11 -14 20 -29 20 -33 0 -5 14 -28 30 -52 17
-24 30 -46 30 -49 0 -3 15 -21 33 -40 l32 -35 1030 2 1030 2 0 43 c0 23 3 42
8 42 4 0 5 5 1 12 -10 16 -11 148 -1 148 5 0 5 5 1 12 -4 7 -7 46 -6 88 1 41
2 80 2 85 1 6 0 146 -1 311 -1 166 1 307 5 313 4 6 4 11 -1 11 -10 0 -9 122 1
138 4 7 4 12 -1 12 -10 0 -10 131 0 147 4 7 3 15 -3 18 -8 5 -7 11 1 21 6 8 7
14 2 14 -5 0 -7 28 -6 63 5 82 5 79 -1 102 -2 11 -5 26 -5 34 -1 8 -7 11 -17
7 -8 -3 -12 -2 -9 4 3 5 -7 17 -22 27 -15 10 -35 25 -43 33 -8 9 -23 19 -33
23 -11 4 -15 12 -11 18 4 7 3 9 -4 5 -6 -3 -15 2 -21 11 -6 10 -11 14 -11 10
0 -5 -6 -2 -14 5 -36 35 -86 78 -91 78 -3 0 -21 16 -39 35 -19 19 -37 35 -41
35 -3 0 -17 12 -30 26 -14 15 -25 23 -25 18 0 -5 -5 -1 -11 9 -5 9 -17 17 -25
17 -8 0 -12 5 -9 10 3 6 1 10 -5 10 -7 0 -25 14 -40 30 -15 17 -32 30 -37 30
-4 0 -27 19 -50 41 -24 22 -43 38 -43 35 0 -5 -47 35 -96 82 -13 12 -26 22
-29 22 -3 0 -13 8 -24 18 -48 44 -91 81 -91 76 0 -3 -11 6 -24 20 -13 15 -27
26 -32 26 -5 0 -16 9 -24 20 -8 11 -18 20 -23 20 -4 0 -18 10 -31 23 -41 39
-64 56 -70 50 -3 -4 -6 1 -6 10 0 9 -4 17 -10 17 -5 0 -28 18 -52 40 -24 22
-49 40 -56 40 -7 0 -10 5 -7 10 3 6 1 10 -5 10 -6 0 -21 10 -34 23 -12 12 -38
33 -56 47 -19 14 -44 34 -56 45 -48 43 -74 65 -79 65 -3 0 -19 14 -35 30 -16
17 -32 30 -36 30 -4 0 -15 10 -25 22 -11 11 -19 18 -19 15 0 -6 -17 8 -105 90
-19 17 -35 29 -35 26 0 -2 -6 2 -13 9 -8 7 -31 27 -52 43 -21 17 -46 39 -56
49 -11 11 -19 17 -19 14 0 -4 -15 8 -34 25 -54 51 -116 101 -137 111 -10 5
-19 13 -19 18 0 4 -15 17 -32 28 -18 11 -29 20 -24 20 5 0 -17 19 -48 42 -31
23 -56 45 -56 50 0 5 -4 6 -10 3 -5 -3 -10 -1 -10 4 0 18 -24 10 -52 -17z"/>
</g>
</svg>
